<svg width="333" height="34" viewBox="0 0 333 34" fill="none" xmlns="http://www.w3.org/2000/svg">
<path d="M18.32 33V32.16C19.272 32.104 19.986 31.992 20.462 31.824C20.966 31.656 21.302 31.32 21.47 30.816C21.638 30.312 21.722 29.556 21.722 28.548V7.716C21.722 6.68 21.638 5.924 21.47 5.448C21.302 4.944 20.966 4.608 20.462 4.44C19.986 4.244 19.272 4.132 18.32 4.104V3.264C18.964 3.292 19.776 3.32 20.756 3.348C21.736 3.376 22.702 3.39 23.654 3.39C24.746 3.39 25.768 3.376 26.72 3.348C27.672 3.32 28.442 3.292 29.03 3.264V4.104C28.078 4.132 27.35 4.244 26.846 4.44C26.37 4.608 26.048 4.944 25.88 5.448C25.712 5.924 25.628 6.68 25.628 7.716V28.548C25.628 29.556 25.712 30.312 25.88 30.816C26.048 31.32 26.37 31.656 26.846 31.824C27.35 31.992 28.078 32.104 29.03 32.16V33C28.442 32.944 27.672 32.916 26.72 32.916C25.768 32.888 24.746 32.874 23.654 32.874C22.702 32.874 21.736 32.888 20.756 32.916C19.776 32.916 18.964 32.944 18.32 33ZM0.764 33V32.16C1.716 32.104 2.43 31.992 2.906 31.824C3.41 31.656 3.746 31.32 3.914 30.816C4.082 30.312 4.166 29.556 4.166 28.548V7.716C4.166 6.68 4.082 5.924 3.914 5.448C3.746 4.944 3.41 4.608 2.906 4.44C2.43 4.244 1.716 4.132 0.764 4.104V3.264C1.352 3.292 2.122 3.32 3.074 3.348C4.026 3.376 5.048 3.39 6.14 3.39C7.12 3.39 8.086 3.376 9.038 3.348C10.018 3.32 10.83 3.292 11.474 3.264V4.104C10.522 4.132 9.794 4.244 9.29 4.44C8.814 4.608 8.492 4.944 8.324 5.448C8.156 5.924 8.072 6.68 8.072 7.716V28.548C8.072 29.556 8.156 30.312 8.324 30.816C8.492 31.32 8.814 31.656 9.29 31.824C9.794 31.992 10.522 32.104 11.474 32.16V33C10.83 32.944 10.018 32.916 9.038 32.916C8.086 32.888 7.12 32.874 6.14 32.874C5.048 32.874 4.026 32.888 3.074 32.916C2.122 32.916 1.352 32.944 0.764 33ZM6.602 18.468V17.628H23.192V18.468H6.602ZM41.5568 10.782C43.3488 10.782 44.9588 11.174 46.3868 11.958C47.8148 12.742 48.9488 13.974 49.7888 15.654C50.6568 17.334 51.0908 19.518 51.0908 22.206C51.0908 24.894 50.6568 27.078 49.7888 28.758C48.9488 30.41 47.8148 31.628 46.3868 32.412C44.9588 33.196 43.3488 33.588 41.5568 33.588C39.7928 33.588 38.1828 33.196 36.7268 32.412C35.2988 31.628 34.1508 30.41 33.2828 28.758C32.4428 27.078 32.0228 24.894 32.0228 22.206C32.0228 19.518 32.4428 17.334 33.2828 15.654C34.1508 13.974 35.2988 12.742 36.7268 11.958C38.1828 11.174 39.7928 10.782 41.5568 10.782ZM41.5568 11.622C39.9608 11.622 38.6448 12.448 37.6088 14.1C36.6008 15.752 36.0968 18.454 36.0968 22.206C36.0968 25.958 36.6008 28.66 37.6088 30.312C38.6448 31.936 39.9608 32.748 41.5568 32.748C43.1528 32.748 44.4548 31.936 45.4628 30.312C46.4988 28.66 47.0168 25.958 47.0168 22.206C47.0168 18.454 46.4988 15.752 45.4628 14.1C44.4548 12.448 43.1528 11.622 41.5568 11.622ZM73.1835 11.37V12.21C72.6515 12.266 72.1615 12.504 71.7135 12.924C71.2655 13.344 70.8455 14.086 70.4535 15.15L63.5655 33.21C63.4535 33.21 63.3415 33.21 63.2295 33.21C63.1175 33.21 62.9915 33.21 62.8515 33.21L55.1235 14.604C54.6755 13.512 54.2275 12.854 53.7795 12.63C53.3595 12.378 52.9955 12.252 52.6875 12.252V11.37C53.2475 11.398 53.8215 11.44 54.4095 11.496C55.0255 11.524 55.6835 11.538 56.3835 11.538C57.2515 11.538 58.1615 11.524 59.1135 11.496C60.0935 11.468 61.0035 11.426 61.8435 11.37V12.252C61.1435 12.252 60.5135 12.308 59.9535 12.42C59.4215 12.504 59.0715 12.77 58.9035 13.218C58.7635 13.666 58.9035 14.436 59.3235 15.528L64.5735 28.506L64.3215 28.716L69.1095 16.158C69.4735 15.234 69.6135 14.506 69.5295 13.974C69.4735 13.414 69.1935 12.994 68.6895 12.714C68.2135 12.434 67.4715 12.266 66.4635 12.21V11.37C66.9675 11.398 67.4015 11.426 67.7655 11.454C68.1295 11.454 68.4795 11.468 68.8155 11.496C69.1795 11.496 69.5715 11.496 69.9915 11.496C70.6355 11.496 71.2095 11.482 71.7135 11.454C72.2455 11.426 72.7355 11.398 73.1835 11.37ZM84.3752 10.782C86.8392 10.782 88.7572 11.538 90.1292 13.05C91.5292 14.534 92.2292 16.858 92.2292 20.022H77.4032L77.3612 19.224H88.1972C88.2532 17.852 88.1412 16.592 87.8612 15.444C87.5812 14.268 87.1332 13.33 86.5172 12.63C85.9292 11.93 85.1592 11.58 84.2072 11.58C82.9192 11.58 81.7712 12.224 80.7632 13.512C79.7832 14.8 79.1952 16.844 78.9992 19.644L79.1252 19.812C79.0692 20.232 79.0272 20.694 78.9992 21.198C78.9712 21.702 78.9572 22.206 78.9572 22.71C78.9572 24.614 79.2652 26.252 79.8812 27.624C80.4972 28.996 81.2952 30.046 82.2752 30.774C83.2832 31.474 84.3192 31.824 85.3832 31.824C86.2232 31.824 87.0212 31.698 87.7772 31.446C88.5332 31.166 89.2332 30.718 89.8772 30.102C90.5212 29.486 91.0812 28.66 91.5572 27.624L92.3972 27.96C92.0892 28.884 91.5852 29.78 90.8852 30.648C90.1852 31.516 89.3032 32.23 88.2392 32.79C87.1752 33.322 85.9432 33.588 84.5432 33.588C82.5272 33.588 80.7912 33.126 79.3352 32.202C77.9072 31.278 76.8012 30.004 76.0172 28.38C75.2612 26.728 74.8832 24.838 74.8832 22.71C74.8832 20.246 75.2752 18.132 76.0592 16.368C76.8432 14.576 77.9492 13.204 79.3772 12.252C80.8052 11.272 82.4712 10.782 84.3752 10.782ZM108.477 10.782C109.233 10.782 109.891 10.936 110.451 11.244C111.039 11.552 111.487 11.958 111.795 12.462C112.131 12.938 112.299 13.484 112.299 14.1C112.299 14.8 112.075 15.416 111.627 15.948C111.207 16.48 110.633 16.746 109.905 16.746C109.317 16.746 108.799 16.564 108.351 16.2C107.903 15.808 107.679 15.262 107.679 14.562C107.679 14.03 107.819 13.582 108.099 13.218C108.407 12.826 108.743 12.518 109.107 12.294C108.911 12.014 108.617 11.874 108.225 11.874C107.357 11.874 106.559 12.14 105.831 12.672C105.103 13.176 104.487 13.834 103.983 14.646C103.479 15.458 103.087 16.326 102.807 17.25C102.527 18.146 102.387 18.986 102.387 19.77V28.674C102.387 30.046 102.779 30.97 103.563 31.446C104.375 31.894 105.467 32.118 106.839 32.118V33C106.195 32.972 105.285 32.944 104.109 32.916C102.933 32.86 101.687 32.832 100.371 32.832C99.4193 32.832 98.4673 32.86 97.5153 32.916C96.5913 32.944 95.8913 32.972 95.4153 33V32.118C96.5633 32.118 97.3753 31.908 97.8513 31.488C98.3553 31.068 98.6073 30.27 98.6073 29.094V15.948C98.6073 14.688 98.3833 13.764 97.9353 13.176C97.4873 12.56 96.6473 12.252 95.4153 12.252V11.37C96.3113 11.454 97.1793 11.496 98.0193 11.496C98.8313 11.496 99.6013 11.454 100.329 11.37C101.085 11.258 101.771 11.104 102.387 10.908V16.158C102.695 15.346 103.129 14.534 103.689 13.722C104.277 12.882 104.977 12.182 105.789 11.622C106.601 11.062 107.497 10.782 108.477 10.782ZM138.039 2.676C140.699 2.676 143.023 3.278 145.011 4.482C147.027 5.686 148.581 7.422 149.673 9.69C150.793 11.93 151.353 14.66 151.353 17.88C151.353 21.016 150.779 23.76 149.631 26.112C148.511 28.464 146.943 30.298 144.927 31.614C142.911 32.93 140.601 33.588 137.997 33.588C135.337 33.588 132.999 32.986 130.983 31.782C128.995 30.578 127.441 28.842 126.321 26.574C125.229 24.306 124.683 21.576 124.683 18.384C124.683 15.248 125.257 12.504 126.405 10.152C127.553 7.8 129.121 5.966 131.109 4.65C133.125 3.334 135.435 2.676 138.039 2.676ZM137.871 3.432C136.051 3.432 134.469 4.062 133.125 5.322C131.781 6.582 130.731 8.318 129.975 10.53C129.247 12.742 128.883 15.304 128.883 18.216C128.883 21.184 129.289 23.774 130.101 25.986C130.941 28.17 132.061 29.864 133.461 31.068C134.889 32.244 136.457 32.832 138.165 32.832C139.985 32.832 141.567 32.202 142.911 30.942C144.255 29.682 145.291 27.946 146.019 25.734C146.775 23.494 147.153 20.932 147.153 18.048C147.153 15.052 146.733 12.462 145.893 10.278C145.081 8.094 143.975 6.414 142.575 5.238C141.175 4.034 139.607 3.432 137.871 3.432ZM174 11.37V12.21C173.468 12.266 172.978 12.504 172.53 12.924C172.082 13.344 171.662 14.086 171.27 15.15L164.382 33.21C164.27 33.21 164.158 33.21 164.046 33.21C163.934 33.21 163.808 33.21 163.668 33.21L155.94 14.604C155.492 13.512 155.044 12.854 154.596 12.63C154.176 12.378 153.812 12.252 153.504 12.252V11.37C154.064 11.398 154.638 11.44 155.226 11.496C155.842 11.524 156.5 11.538 157.2 11.538C158.068 11.538 158.978 11.524 159.93 11.496C160.91 11.468 161.82 11.426 162.66 11.37V12.252C161.96 12.252 161.33 12.308 160.77 12.42C160.238 12.504 159.888 12.77 159.72 13.218C159.58 13.666 159.72 14.436 160.14 15.528L165.39 28.506L165.138 28.716L169.926 16.158C170.29 15.234 170.43 14.506 170.346 13.974C170.29 13.414 170.01 12.994 169.506 12.714C169.03 12.434 168.288 12.266 167.28 12.21V11.37C167.784 11.398 168.218 11.426 168.582 11.454C168.946 11.454 169.296 11.468 169.632 11.496C169.996 11.496 170.388 11.496 170.808 11.496C171.452 11.496 172.026 11.482 172.53 11.454C173.062 11.426 173.552 11.398 174 11.37ZM185.192 10.782C187.656 10.782 189.574 11.538 190.946 13.05C192.346 14.534 193.046 16.858 193.046 20.022H178.22L178.178 19.224H189.014C189.07 17.852 188.958 16.592 188.678 15.444C188.398 14.268 187.95 13.33 187.334 12.63C186.746 11.93 185.976 11.58 185.024 11.58C183.736 11.58 182.588 12.224 181.58 13.512C180.6 14.8 180.012 16.844 179.816 19.644L179.942 19.812C179.886 20.232 179.844 20.694 179.816 21.198C179.788 21.702 179.774 22.206 179.774 22.71C179.774 24.614 180.082 26.252 180.698 27.624C181.314 28.996 182.112 30.046 183.092 30.774C184.1 31.474 185.136 31.824 186.2 31.824C187.04 31.824 187.838 31.698 188.594 31.446C189.35 31.166 190.05 30.718 190.694 30.102C191.338 29.486 191.898 28.66 192.374 27.624L193.214 27.96C192.906 28.884 192.402 29.78 191.702 30.648C191.002 31.516 190.12 32.23 189.056 32.79C187.992 33.322 186.76 33.588 185.36 33.588C183.344 33.588 181.608 33.126 180.152 32.202C178.724 31.278 177.618 30.004 176.834 28.38C176.078 26.728 175.7 24.838 175.7 22.71C175.7 20.246 176.092 18.132 176.876 16.368C177.66 14.576 178.766 13.204 180.194 12.252C181.622 11.272 183.288 10.782 185.192 10.782ZM209.294 10.782C210.05 10.782 210.708 10.936 211.268 11.244C211.856 11.552 212.304 11.958 212.612 12.462C212.948 12.938 213.116 13.484 213.116 14.1C213.116 14.8 212.892 15.416 212.444 15.948C212.024 16.48 211.45 16.746 210.722 16.746C210.134 16.746 209.616 16.564 209.168 16.2C208.72 15.808 208.496 15.262 208.496 14.562C208.496 14.03 208.636 13.582 208.916 13.218C209.224 12.826 209.56 12.518 209.924 12.294C209.728 12.014 209.434 11.874 209.042 11.874C208.174 11.874 207.376 12.14 206.648 12.672C205.92 13.176 205.304 13.834 204.8 14.646C204.296 15.458 203.904 16.326 203.624 17.25C203.344 18.146 203.204 18.986 203.204 19.77V28.674C203.204 30.046 203.596 30.97 204.38 31.446C205.192 31.894 206.284 32.118 207.656 32.118V33C207.012 32.972 206.102 32.944 204.926 32.916C203.75 32.86 202.504 32.832 201.188 32.832C200.236 32.832 199.284 32.86 198.332 32.916C197.408 32.944 196.708 32.972 196.232 33V32.118C197.38 32.118 198.192 31.908 198.668 31.488C199.172 31.068 199.424 30.27 199.424 29.094V15.948C199.424 14.688 199.2 13.764 198.752 13.176C198.304 12.56 197.464 12.252 196.232 12.252V11.37C197.128 11.454 197.996 11.496 198.836 11.496C199.648 11.496 200.418 11.454 201.146 11.37C201.902 11.258 202.588 11.104 203.204 10.908V16.158C203.512 15.346 203.946 14.534 204.506 13.722C205.094 12.882 205.794 12.182 206.606 11.622C207.418 11.062 208.314 10.782 209.294 10.782ZM245.995 3.264C245.883 4.244 245.799 5.196 245.743 6.12C245.715 7.044 245.701 7.744 245.701 8.22C245.701 8.724 245.715 9.214 245.743 9.69C245.771 10.138 245.799 10.516 245.827 10.824H244.861C244.693 9.172 244.455 7.87 244.147 6.918C243.839 5.938 243.307 5.252 242.551 4.86C241.823 4.44 240.717 4.23 239.233 4.23H235.747C234.795 4.23 234.067 4.314 233.563 4.482C233.087 4.622 232.765 4.944 232.597 5.448C232.429 5.924 232.345 6.68 232.345 7.716V28.548C232.345 29.556 232.429 30.312 232.597 30.816C232.765 31.32 233.087 31.656 233.563 31.824C234.067 31.964 234.795 32.034 235.747 32.034H238.813C240.577 32.034 241.907 31.796 242.803 31.32C243.727 30.844 244.385 30.074 244.777 29.01C245.197 27.918 245.505 26.448 245.701 24.6H246.667C246.583 25.356 246.541 26.364 246.541 27.624C246.541 28.156 246.555 28.926 246.583 29.934C246.639 30.914 246.723 31.936 246.835 33C245.407 32.944 243.797 32.916 242.005 32.916C240.213 32.888 238.617 32.874 237.217 32.874C236.601 32.874 235.803 32.874 234.823 32.874C233.871 32.874 232.835 32.888 231.715 32.916C230.595 32.916 229.461 32.93 228.313 32.958C227.165 32.958 226.073 32.972 225.037 33V32.16C225.989 32.104 226.703 31.992 227.179 31.824C227.683 31.656 228.019 31.32 228.187 30.816C228.355 30.312 228.439 29.556 228.439 28.548V7.716C228.439 6.68 228.355 5.924 228.187 5.448C228.019 4.944 227.683 4.608 227.179 4.44C226.703 4.244 225.989 4.132 225.037 4.104V3.264C226.073 3.292 227.165 3.32 228.313 3.348C229.461 3.348 230.595 3.362 231.715 3.39C232.835 3.39 233.871 3.39 234.823 3.39C235.803 3.39 236.601 3.39 237.217 3.39C238.505 3.39 239.961 3.39 241.585 3.39C243.237 3.362 244.707 3.32 245.995 3.264ZM238.771 17.628C238.771 17.628 238.771 17.768 238.771 18.048C238.771 18.328 238.771 18.468 238.771 18.468H231.085C231.085 18.468 231.085 18.328 231.085 18.048C231.085 17.768 231.085 17.628 231.085 17.628H238.771ZM239.989 12.084C239.877 13.68 239.821 14.898 239.821 15.738C239.849 16.578 239.863 17.348 239.863 18.048C239.863 18.748 239.877 19.518 239.905 20.358C239.933 21.198 240.003 22.416 240.115 24.012H239.149C239.037 23.116 238.897 22.248 238.729 21.408C238.589 20.54 238.253 19.84 237.721 19.308C237.217 18.748 236.349 18.468 235.117 18.468V17.628C236.041 17.628 236.741 17.446 237.217 17.082C237.721 16.69 238.085 16.2 238.309 15.612C238.533 15.024 238.687 14.422 238.771 13.806C238.855 13.162 238.939 12.588 239.023 12.084H239.989ZM261.593 1.836C263.077 1.836 264.393 2.186 265.541 2.886C266.717 3.586 267.501 4.608 267.893 5.952L267.305 6.288C266.997 5.252 266.367 4.384 265.415 3.684C264.491 2.956 263.273 2.592 261.761 2.592C260.165 2.592 258.989 3.124 258.233 4.188C257.477 5.224 257.099 6.918 257.099 9.27V11.412H263.441V12.252H257.099V29.094C257.099 30.27 257.337 31.068 257.813 31.488C258.317 31.908 259.143 32.118 260.291 32.118V33C259.815 32.972 259.101 32.944 258.149 32.916C257.197 32.86 256.231 32.832 255.251 32.832C254.299 32.832 253.319 32.86 252.311 32.916C251.331 32.944 250.603 32.972 250.127 33V32.118C251.275 32.118 252.087 31.908 252.563 31.488C253.067 31.068 253.319 30.27 253.319 29.094V12.252H249.959V11.412H253.319C253.319 9.844 253.473 8.5 253.781 7.38C254.089 6.26 254.565 5.322 255.209 4.566C255.909 3.754 256.805 3.096 257.897 2.592C259.017 2.088 260.249 1.836 261.593 1.836ZM273.941 0.155997C274.725 0.155997 275.411 0.267998 275.999 0.491998C276.615 0.687999 277.147 0.953999 277.595 1.29C278.015 1.626 278.337 2.018 278.561 2.466C278.785 2.914 278.897 3.39 278.897 3.894C278.897 4.538 278.687 5.07 278.267 5.49C277.847 5.91 277.315 6.12 276.671 6.12C276.055 6.12 275.509 5.924 275.033 5.532C274.585 5.112 274.361 4.552 274.361 3.852C274.361 3.264 274.515 2.788 274.823 2.424C275.159 2.06 275.593 1.822 276.125 1.71C276.041 1.458 275.817 1.248 275.453 1.08C275.117 0.883999 274.655 0.785999 274.067 0.785999C273.423 0.785999 272.863 0.925999 272.387 1.206C271.939 1.486 271.589 1.864 271.337 2.34C271.001 2.928 270.791 3.81 270.707 4.986C270.623 6.134 270.581 7.912 270.581 10.32V11.412H275.075V12.252H270.581V28.674C270.581 30.046 270.973 30.97 271.757 31.446C272.569 31.894 273.661 32.118 275.033 32.118V33C274.389 32.972 273.479 32.944 272.303 32.916C271.127 32.86 269.881 32.832 268.565 32.832C267.613 32.832 266.661 32.86 265.709 32.916C264.785 32.944 264.085 32.972 263.609 33V32.118C264.757 32.118 265.569 31.908 266.045 31.488C266.549 31.068 266.801 30.27 266.801 29.094V12.252H263.441V11.412H266.801C266.801 9.76 266.871 8.374 267.011 7.254C267.151 6.134 267.375 5.182 267.683 4.398C267.991 3.586 268.411 2.872 268.943 2.256C269.503 1.612 270.217 1.108 271.085 0.744C271.953 0.351998 272.905 0.155997 273.941 0.155997ZM287.033 10.782C289.497 10.782 291.415 11.538 292.787 13.05C294.187 14.534 294.887 16.858 294.887 20.022H280.061L280.019 19.224H290.855C290.911 17.852 290.799 16.592 290.519 15.444C290.239 14.268 289.791 13.33 289.175 12.63C288.587 11.93 287.817 11.58 286.865 11.58C285.577 11.58 284.429 12.224 283.421 13.512C282.441 14.8 281.853 16.844 281.657 19.644L281.783 19.812C281.727 20.232 281.685 20.694 281.657 21.198C281.629 21.702 281.615 22.206 281.615 22.71C281.615 24.614 281.923 26.252 282.539 27.624C283.155 28.996 283.953 30.046 284.933 30.774C285.941 31.474 286.977 31.824 288.041 31.824C288.881 31.824 289.679 31.698 290.435 31.446C291.191 31.166 291.891 30.718 292.535 30.102C293.179 29.486 293.739 28.66 294.215 27.624L295.055 27.96C294.747 28.884 294.243 29.78 293.543 30.648C292.843 31.516 291.961 32.23 290.897 32.79C289.833 33.322 288.601 33.588 287.201 33.588C285.185 33.588 283.449 33.126 281.993 32.202C280.565 31.278 279.459 30.004 278.675 28.38C277.919 26.728 277.541 24.838 277.541 22.71C277.541 20.246 277.933 18.132 278.717 16.368C279.501 14.576 280.607 13.204 282.035 12.252C283.463 11.272 285.129 10.782 287.033 10.782ZM308.573 10.782C309.469 10.782 310.337 10.894 311.177 11.118C312.017 11.342 312.773 11.678 313.445 12.126C314.089 12.546 314.579 13.036 314.915 13.596C315.251 14.128 315.419 14.716 315.419 15.36C315.419 16.116 315.209 16.704 314.789 17.124C314.369 17.516 313.837 17.712 313.193 17.712C312.577 17.712 312.031 17.53 311.555 17.166C311.107 16.802 310.883 16.284 310.883 15.612C310.883 14.968 311.051 14.45 311.387 14.058C311.751 13.666 312.171 13.414 312.647 13.302C312.367 12.798 311.863 12.378 311.135 12.042C310.435 11.706 309.679 11.538 308.867 11.538C308.167 11.538 307.467 11.706 306.767 12.042C306.067 12.378 305.423 12.938 304.835 13.722C304.247 14.478 303.771 15.528 303.407 16.872C303.043 18.188 302.861 19.84 302.861 21.828C302.861 24.292 303.141 26.252 303.701 27.708C304.261 29.164 304.989 30.214 305.885 30.858C306.809 31.474 307.817 31.782 308.909 31.782C309.637 31.782 310.379 31.642 311.135 31.362C311.891 31.082 312.605 30.634 313.277 30.018C313.949 29.374 314.523 28.52 314.999 27.456L315.797 27.75C315.517 28.646 315.055 29.556 314.411 30.48C313.767 31.376 312.927 32.118 311.891 32.706C310.855 33.294 309.581 33.588 308.069 33.588C306.333 33.588 304.765 33.14 303.365 32.244C301.965 31.348 300.845 30.074 300.005 28.422C299.193 26.742 298.787 24.754 298.787 22.458C298.787 20.162 299.193 18.146 300.005 16.41C300.845 14.646 302.007 13.274 303.491 12.294C304.975 11.286 306.669 10.782 308.573 10.782ZM325.261 4.398V11.412H331.477V12.252H325.261V28.506C325.261 29.822 325.499 30.746 325.975 31.278C326.451 31.81 327.109 32.076 327.949 32.076C328.789 32.076 329.517 31.74 330.133 31.068C330.749 30.368 331.281 29.206 331.729 27.582L332.569 27.792C332.289 29.416 331.729 30.788 330.889 31.908C330.077 33.028 328.817 33.588 327.109 33.588C326.157 33.588 325.373 33.462 324.757 33.21C324.141 32.986 323.595 32.65 323.119 32.202C322.503 31.558 322.069 30.788 321.817 29.892C321.593 28.996 321.481 27.806 321.481 26.322V12.252H317.449V11.412H321.481V4.986C322.181 4.958 322.853 4.902 323.497 4.818C324.141 4.734 324.729 4.594 325.261 4.398Z" fill="#FAEB8C"/>
</svg>
