<svg xmlns="http://www.w3.org/2000/svg" width="333" height="34" fill="none"><path fill="#FAEB8C" d="M18.32 33v-.84c.952-.056 1.666-.168 2.142-.336.504-.168.84-.504 1.008-1.008.168-.504.252-1.26.252-2.268V7.716c0-1.036-.084-1.792-.252-2.268a1.515 1.515 0 0 0-1.008-1.008c-.476-.196-1.19-.308-2.142-.336v-.84c.644.028 1.456.056 2.436.084a104.648 104.648 0 0 0 5.964 0c.952-.028 1.722-.056 2.31-.084v.84c-.952.028-1.68.14-2.184.336-.476.168-.798.504-.966 1.008-.168.476-.252 1.232-.252 2.268v20.832c0 1.008.084 1.764.252 2.268.168.504.49.84.966 1.008.504.168 1.232.28 2.184.336V33a25.4 25.4 0 0 0-2.31-.084 104.648 104.648 0 0 0-5.964 0c-.98 0-1.792.028-2.436.084ZM.764 33v-.84c.952-.056 1.666-.168 2.142-.336.504-.168.84-.504 1.008-1.008.168-.504.252-1.26.252-2.268V7.716c0-1.036-.084-1.792-.252-2.268A1.515 1.515 0 0 0 2.906 4.44c-.476-.196-1.19-.308-2.142-.336v-.84c.588.028 1.358.056 2.31.084a104.648 104.648 0 0 0 5.964 0c.98-.028 1.792-.056 2.436-.084v.84c-.952.028-1.68.14-2.184.336-.476.168-.798.504-.966 1.008-.168.476-.252 1.232-.252 2.268v20.832c0 1.008.084 1.764.252 2.268.168.504.49.84.966 1.008.504.168 1.232.28 2.184.336V33a29.023 29.023 0 0 0-2.436-.084 104.648 104.648 0 0 0-5.964 0A25.4 25.4 0 0 0 .764 33Zm5.838-14.532v-.84h16.59v.84H6.602Zm34.955-7.686c1.792 0 3.402.392 4.83 1.176 1.428.784 2.562 2.016 3.402 3.696.868 1.68 1.302 3.864 1.302 6.552 0 2.688-.434 4.872-1.302 6.552-.84 1.652-1.974 2.87-3.402 3.654-1.428.784-3.038 1.176-4.83 1.176-1.764 0-3.374-.392-4.83-1.176-1.428-.784-2.576-2.002-3.444-3.654-.84-1.68-1.26-3.864-1.26-6.552 0-2.688.42-4.872 1.26-6.552.868-1.68 2.016-2.912 3.444-3.696 1.456-.784 3.066-1.176 4.83-1.176Zm0 .84c-1.596 0-2.912.826-3.948 2.478-1.008 1.652-1.512 4.354-1.512 8.106s.504 6.454 1.512 8.106c1.036 1.624 2.352 2.436 3.948 2.436s2.898-.812 3.906-2.436c1.036-1.652 1.554-4.354 1.554-8.106s-.518-6.454-1.554-8.106c-1.008-1.652-2.31-2.478-3.906-2.478Zm31.626-.252v.84c-.532.056-1.022.294-1.47.714-.447.42-.867 1.162-1.26 2.226l-6.888 18.06H62.852l-7.728-18.606c-.449-1.092-.897-1.75-1.345-1.974-.42-.252-.784-.378-1.092-.378v-.882c.56.028 1.135.07 1.723.126.616.028 1.274.042 1.974.042.867 0 1.777-.014 2.73-.042.98-.028 1.89-.07 2.73-.126v.882c-.7 0-1.33.056-1.89.168-.532.084-.883.35-1.05.798-.14.448 0 1.218.42 2.31l5.25 12.978-.252.21 4.787-12.558c.365-.924.505-1.652.42-2.184-.055-.56-.335-.98-.84-1.26-.475-.28-1.217-.448-2.225-.504v-.84c.504.028.938.056 1.302.084.363 0 .713.014 1.05.042h1.175c.644 0 1.219-.014 1.722-.042.533-.028 1.023-.056 1.47-.084Zm11.192-.588c2.464 0 4.382.756 5.754 2.268 1.4 1.484 2.1 3.808 2.1 6.972H77.403l-.042-.798h10.836c.056-1.372-.056-2.632-.336-3.78-.28-1.176-.728-2.114-1.344-2.814-.588-.7-1.358-1.05-2.31-1.05-1.288 0-2.436.644-3.444 1.932-.98 1.288-1.568 3.332-1.764 6.132l.126.168c-.056.42-.098.882-.126 1.386a27.253 27.253 0 0 0-.042 1.512c0 1.904.308 3.542.924 4.914.616 1.372 1.414 2.422 2.394 3.15 1.008.7 2.044 1.05 3.108 1.05a7.52 7.52 0 0 0 2.394-.378c.756-.28 1.456-.728 2.1-1.344.644-.616 1.204-1.442 1.68-2.478l.84.336c-.308.924-.812 1.82-1.512 2.688-.7.868-1.582 1.582-2.646 2.142-1.064.532-2.296.798-3.696.798-2.016 0-3.752-.462-5.208-1.386-1.428-.924-2.534-2.198-3.318-3.822-.756-1.652-1.134-3.542-1.134-5.67 0-2.464.392-4.578 1.176-6.342.784-1.792 1.89-3.164 3.318-4.116 1.428-.98 3.094-1.47 4.998-1.47Zm24.102 0c.756 0 1.414.154 1.974.462.588.308 1.036.714 1.344 1.218a2.77 2.77 0 0 1 .504 1.638c0 .7-.224 1.316-.672 1.848-.42.532-.994.798-1.722.798a2.393 2.393 0 0 1-1.554-.546c-.448-.392-.672-.938-.672-1.638 0-.532.14-.98.42-1.344a3.88 3.88 0 0 1 1.008-.924c-.196-.28-.49-.42-.882-.42-.868 0-1.666.266-2.394.798a6.584 6.584 0 0 0-1.848 1.974c-.504.812-.896 1.68-1.176 2.604-.28.896-.42 1.736-.42 2.52v8.904c0 1.372.392 2.296 1.176 2.772.812.448 1.904.672 3.276.672V33c-.644-.028-1.554-.056-2.73-.084a78.756 78.756 0 0 0-3.738-.084c-.952 0-1.904.028-2.856.084-.924.028-1.624.056-2.1.084v-.882c1.148 0 1.96-.21 2.436-.63.504-.42.756-1.218.756-2.394V15.948c0-1.26-.224-2.184-.672-2.772-.448-.616-1.288-.924-2.52-.924v-.882a27.91 27.91 0 0 0 2.604.126c.812 0 1.582-.042 2.31-.126a13.165 13.165 0 0 0 2.058-.462v5.25c.308-.812.742-1.624 1.302-2.436a8.316 8.316 0 0 1 2.1-2.1 4.632 4.632 0 0 1 2.688-.84Zm29.562-8.106c2.66 0 4.984.602 6.972 1.806 2.016 1.204 3.57 2.94 4.662 5.208 1.12 2.24 1.68 4.97 1.68 8.19 0 3.136-.574 5.88-1.722 8.232-1.12 2.352-2.688 4.186-4.704 5.502-2.016 1.316-4.326 1.974-6.93 1.974-2.66 0-4.998-.602-7.014-1.806-1.988-1.204-3.542-2.94-4.662-5.208-1.092-2.268-1.638-4.998-1.638-8.19 0-3.136.574-5.88 1.722-8.232 1.148-2.352 2.716-4.186 4.704-5.502 2.016-1.316 4.326-1.974 6.93-1.974Zm-.168.756c-1.82 0-3.402.63-4.746 1.89-1.344 1.26-2.394 2.996-3.15 5.208-.728 2.212-1.092 4.774-1.092 7.686 0 2.968.406 5.558 1.218 7.77.84 2.184 1.96 3.878 3.36 5.082 1.428 1.176 2.996 1.764 4.704 1.764 1.82 0 3.402-.63 4.746-1.89 1.344-1.26 2.38-2.996 3.108-5.208.756-2.24 1.134-4.802 1.134-7.686 0-2.996-.42-5.586-1.26-7.77-.812-2.184-1.918-3.864-3.318-5.04-1.4-1.204-2.968-1.806-4.704-1.806ZM174 11.37v.84c-.532.056-1.022.294-1.47.714-.448.42-.868 1.162-1.26 2.226l-6.888 18.06h-.714l-7.728-18.606c-.448-1.092-.896-1.75-1.344-1.974-.42-.252-.784-.378-1.092-.378v-.882c.56.028 1.134.07 1.722.126.616.028 1.274.042 1.974.042.868 0 1.778-.014 2.73-.042.98-.028 1.89-.07 2.73-.126v.882c-.7 0-1.33.056-1.89.168-.532.084-.882.35-1.05.798-.14.448 0 1.218.42 2.31l5.25 12.978-.252.21 4.788-12.558c.364-.924.504-1.652.42-2.184-.056-.56-.336-.98-.84-1.26-.476-.28-1.218-.448-2.226-.504v-.84c.504.028.938.056 1.302.084.364 0 .714.014 1.05.042h1.176c.644 0 1.218-.014 1.722-.042.532-.028 1.022-.056 1.47-.084Zm11.192-.588c2.464 0 4.382.756 5.754 2.268 1.4 1.484 2.1 3.808 2.1 6.972H178.22l-.042-.798h10.836c.056-1.372-.056-2.632-.336-3.78-.28-1.176-.728-2.114-1.344-2.814-.588-.7-1.358-1.05-2.31-1.05-1.288 0-2.436.644-3.444 1.932-.98 1.288-1.568 3.332-1.764 6.132l.126.168c-.056.42-.098.882-.126 1.386a27.253 27.253 0 0 0-.042 1.512c0 1.904.308 3.542.924 4.914.616 1.372 1.414 2.422 2.394 3.15 1.008.7 2.044 1.05 3.108 1.05a7.52 7.52 0 0 0 2.394-.378c.756-.28 1.456-.728 2.1-1.344.644-.616 1.204-1.442 1.68-2.478l.84.336c-.308.924-.812 1.82-1.512 2.688-.7.868-1.582 1.582-2.646 2.142-1.064.532-2.296.798-3.696.798-2.016 0-3.752-.462-5.208-1.386-1.428-.924-2.534-2.198-3.318-3.822-.756-1.652-1.134-3.542-1.134-5.67 0-2.464.392-4.578 1.176-6.342.784-1.792 1.89-3.164 3.318-4.116 1.428-.98 3.094-1.47 4.998-1.47Zm24.102 0c.756 0 1.414.154 1.974.462.588.308 1.036.714 1.344 1.218a2.77 2.77 0 0 1 .504 1.638c0 .7-.224 1.316-.672 1.848-.42.532-.994.798-1.722.798a2.393 2.393 0 0 1-1.554-.546c-.448-.392-.672-.938-.672-1.638 0-.532.14-.98.42-1.344a3.88 3.88 0 0 1 1.008-.924c-.196-.28-.49-.42-.882-.42-.868 0-1.666.266-2.394.798a6.584 6.584 0 0 0-1.848 1.974c-.504.812-.896 1.68-1.176 2.604-.28.896-.42 1.736-.42 2.52v8.904c0 1.372.392 2.296 1.176 2.772.812.448 1.904.672 3.276.672V33c-.644-.028-1.554-.056-2.73-.084a78.756 78.756 0 0 0-3.738-.084c-.952 0-1.904.028-2.856.084-.924.028-1.624.056-2.1.084v-.882c1.148 0 1.96-.21 2.436-.63.504-.42.756-1.218.756-2.394V15.948c0-1.26-.224-2.184-.672-2.772-.448-.616-1.288-.924-2.52-.924v-.882a27.91 27.91 0 0 0 2.604.126c.812 0 1.582-.042 2.31-.126a13.165 13.165 0 0 0 2.058-.462v5.25c.308-.812.742-1.624 1.302-2.436a8.316 8.316 0 0 1 2.1-2.1 4.632 4.632 0 0 1 2.688-.84Zm36.701-7.518a53.87 53.87 0 0 0-.252 2.856 75.275 75.275 0 0 0-.042 2.1c0 .504.014.994.042 1.47.028.448.056.826.084 1.134h-.966c-.168-1.652-.406-2.954-.714-3.906-.308-.98-.84-1.666-1.596-2.058-.728-.42-1.834-.63-3.318-.63h-3.486c-.952 0-1.68.084-2.184.252-.476.14-.798.462-.966.966-.168.476-.252 1.232-.252 2.268v20.832c0 1.008.084 1.764.252 2.268.168.504.49.84.966 1.008.504.14 1.232.21 2.184.21h3.066c1.764 0 3.094-.238 3.99-.714.924-.476 1.582-1.246 1.974-2.31.42-1.092.728-2.562.924-4.41h.966c-.084.756-.126 1.764-.126 3.024 0 .532.014 1.302.042 2.31.056.98.14 2.002.252 3.066a124.431 124.431 0 0 0-4.83-.084 309.99 309.99 0 0 0-4.788-.042h-2.394c-.952 0-1.988.014-3.108.042-1.12 0-2.254.014-3.402.042-1.148 0-2.24.014-3.276.042v-.84c.952-.056 1.666-.168 2.142-.336.504-.168.84-.504 1.008-1.008.168-.504.252-1.26.252-2.268V7.716c0-1.036-.084-1.792-.252-2.268a1.515 1.515 0 0 0-1.008-1.008c-.476-.196-1.19-.308-2.142-.336v-.84c1.036.028 2.128.056 3.276.084 1.148 0 2.282.014 3.402.042H241.585a168.39 168.39 0 0 0 4.41-.126Zm-7.224 14.364v.84h-7.686v-.84h7.686Zm1.218-5.544c-.112 1.596-.168 2.814-.168 3.654.028.84.042 1.61.042 2.31s.014 1.47.042 2.31c.028.84.098 2.058.21 3.654h-.966a36.127 36.127 0 0 0-.42-2.604c-.14-.868-.476-1.568-1.008-2.1-.504-.56-1.372-.84-2.604-.84v-.84c.924 0 1.624-.182 2.1-.546a3.336 3.336 0 0 0 1.092-1.47c.224-.588.378-1.19.462-1.806a49.63 49.63 0 0 1 .252-1.722h.966Zm21.604-10.248c1.484 0 2.8.35 3.948 1.05 1.176.7 1.96 1.722 2.352 3.066l-.588.336c-.308-1.036-.938-1.904-1.89-2.604-.924-.728-2.142-1.092-3.654-1.092-1.596 0-2.772.532-3.528 1.596-.756 1.036-1.134 2.73-1.134 5.082v2.142h6.342v.84h-6.342v16.842c0 1.176.238 1.974.714 2.394.504.42 1.33.63 2.478.63V33a79.85 79.85 0 0 0-2.142-.084 49.347 49.347 0 0 0-2.898-.084c-.952 0-1.932.028-2.94.084-.98.028-1.708.056-2.184.084v-.882c1.148 0 1.96-.21 2.436-.63.504-.42.756-1.218.756-2.394V12.252h-3.36v-.84h3.36c0-1.568.154-2.912.462-4.032.308-1.12.784-2.058 1.428-2.814.7-.812 1.596-1.47 2.688-1.974 1.12-.504 2.352-.756 3.696-.756Zm12.348-1.68c.784 0 1.47.112 2.058.336a5.328 5.328 0 0 1 1.596.798c.42.336.742.728.966 1.176.224.448.336.924.336 1.428 0 .644-.21 1.176-.63 1.596-.42.42-.952.63-1.596.63a2.504 2.504 0 0 1-1.638-.588c-.448-.42-.672-.98-.672-1.68 0-.588.154-1.064.462-1.428.336-.364.77-.602 1.302-.714-.084-.252-.308-.462-.672-.63-.336-.196-.798-.294-1.386-.294-.644 0-1.204.14-1.68.42-.448.28-.798.658-1.05 1.134-.336.588-.546 1.47-.63 2.646-.084 1.148-.126 2.926-.126 5.334v1.092h4.494v.84h-4.494v16.422c0 1.372.392 2.296 1.176 2.772.812.448 1.904.672 3.276.672V33c-.644-.028-1.554-.056-2.73-.084a78.756 78.756 0 0 0-3.738-.084c-.952 0-1.904.028-2.856.084-.924.028-1.624.056-2.1.084v-.882c1.148 0 1.96-.21 2.436-.63.504-.42.756-1.218.756-2.394V12.252h-3.36v-.84h3.36c0-1.652.07-3.038.21-4.158.14-1.12.364-2.072.672-2.856a7.092 7.092 0 0 1 1.26-2.142c.56-.644 1.274-1.148 2.142-1.512.868-.392 1.82-.588 2.856-.588Zm13.092 10.626c2.464 0 4.382.756 5.754 2.268 1.4 1.484 2.1 3.808 2.1 6.972h-14.826l-.042-.798h10.836c.056-1.372-.056-2.632-.336-3.78-.28-1.176-.728-2.114-1.344-2.814-.588-.7-1.358-1.05-2.31-1.05-1.288 0-2.436.644-3.444 1.932-.98 1.288-1.568 3.332-1.764 6.132l.126.168c-.056.42-.098.882-.126 1.386a27.253 27.253 0 0 0-.042 1.512c0 1.904.308 3.542.924 4.914.616 1.372 1.414 2.422 2.394 3.15 1.008.7 2.044 1.05 3.108 1.05a7.52 7.52 0 0 0 2.394-.378c.756-.28 1.456-.728 2.1-1.344.644-.616 1.204-1.442 1.68-2.478l.84.336c-.308.924-.812 1.82-1.512 2.688-.7.868-1.582 1.582-2.646 2.142-1.064.532-2.296.798-3.696.798-2.016 0-3.752-.462-5.208-1.386-1.428-.924-2.534-2.198-3.318-3.822-.756-1.652-1.134-3.542-1.134-5.67 0-2.464.392-4.578 1.176-6.342.784-1.792 1.89-3.164 3.318-4.116 1.428-.98 3.094-1.47 4.998-1.47Zm21.54 0c.896 0 1.764.112 2.604.336.84.224 1.596.56 2.268 1.008.644.42 1.134.91 1.47 1.47.336.532.504 1.12.504 1.764 0 .756-.21 1.344-.63 1.764-.42.392-.952.588-1.596.588a2.624 2.624 0 0 1-1.638-.546c-.448-.364-.672-.882-.672-1.554 0-.644.168-1.162.504-1.554a2.472 2.472 0 0 1 1.26-.756c-.28-.504-.784-.924-1.512-1.26a5.173 5.173 0 0 0-2.268-.504c-.7 0-1.4.168-2.1.504-.7.336-1.344.896-1.932 1.68-.588.756-1.064 1.806-1.428 3.15-.364 1.316-.546 2.968-.546 4.956 0 2.464.28 4.424.84 5.88.56 1.456 1.288 2.506 2.184 3.15a5.342 5.342 0 0 0 3.024.924c.728 0 1.47-.14 2.226-.42.756-.28 1.47-.728 2.142-1.344.672-.644 1.246-1.498 1.722-2.562l.798.294c-.28.896-.742 1.806-1.386 2.73-.644.896-1.484 1.638-2.52 2.226-1.036.588-2.31.882-3.822.882-1.736 0-3.304-.448-4.704-1.344-1.4-.896-2.52-2.17-3.36-3.822-.812-1.68-1.218-3.668-1.218-5.964 0-2.296.406-4.312 1.218-6.048.84-1.764 2.002-3.136 3.486-4.116 1.484-1.008 3.178-1.512 5.082-1.512Zm16.688-6.384v7.014h6.216v.84h-6.216v16.254c0 1.316.238 2.24.714 2.772.476.532 1.134.798 1.974.798.84 0 1.568-.336 2.184-1.008.616-.7 1.148-1.862 1.596-3.486l.84.21c-.28 1.624-.84 2.996-1.68 4.116-.812 1.12-2.072 1.68-3.78 1.68-.952 0-1.736-.126-2.352-.378a4.718 4.718 0 0 1-1.638-1.008 5.399 5.399 0 0 1-1.302-2.31c-.224-.896-.336-2.086-.336-3.57v-14.07h-4.032v-.84h4.032V4.986c.7-.028 1.372-.084 2.016-.168a8.14 8.14 0 0 0 1.764-.42Z"/></svg>