<svg xmlns="http://www.w3.org/2000/svg" width="119" height="78" fill="none"><mask id="a" width="90" height="70" x="2" y="5" fill="#000" maskUnits="userSpaceOnUse"><path fill="#fff" d="M2 5h90v70H2z"/><path d="M9.32 18.6h13.44v5.2H9.32v-5.2ZM9.8 34H3.32V6h21.16v5.2H9.8V34Zm31.507.48c-3.974 0-7.08-1.107-9.32-3.32s-3.36-5.373-3.36-9.48V6h6.48v15.44c0 2.667.547 4.587 1.64 5.76s2.627 1.76 4.6 1.76c1.973 0 3.506-.587 4.6-1.76 1.093-1.173 1.64-3.093 1.64-5.76V6h6.4v15.68c0 4.107-1.12 7.267-3.36 9.48-2.24 2.213-5.347 3.32-9.32 3.32ZM60.39 34V6h5.36l16.52 20.16h-2.6V6h6.4v28h-5.32L64.19 13.84h2.6V34h-6.4ZM22.52 45H29v28h-6.48V45ZM9.8 73H3.32V45H9.8v28ZM23 61.52H9.32v-5.48H23v5.48ZM31.945 73l12.48-28h6.4l12.52 28h-6.8l-10.24-24.72h2.56L38.585 73h-6.64Zm6.24-6 1.72-4.92h14.4l1.76 4.92h-17.88Zm39.919 6.48c-3.974 0-7.08-1.107-9.32-3.32s-3.36-5.373-3.36-9.48V45h6.48v15.44c0 2.667.546 4.587 1.64 5.76 1.093 1.173 2.626 1.76 4.6 1.76 1.973 0 3.506-.587 4.6-1.76 1.093-1.173 1.64-3.093 1.64-5.76V45h6.4v15.68c0 4.107-1.12 7.267-3.36 9.48-2.24 2.213-5.347 3.32-9.32 3.32Z"/></mask><path fill="#FAEB8C" d="M9.32 18.6h13.44v5.2H9.32v-5.2ZM9.8 34H3.32V6h21.16v5.2H9.8V34Zm31.507.48c-3.974 0-7.08-1.107-9.32-3.32s-3.36-5.373-3.36-9.48V6h6.48v15.44c0 2.667.547 4.587 1.64 5.76s2.627 1.76 4.6 1.76c1.973 0 3.506-.587 4.6-1.76 1.093-1.173 1.64-3.093 1.64-5.76V6h6.4v15.68c0 4.107-1.12 7.267-3.36 9.48-2.24 2.213-5.347 3.32-9.32 3.32ZM60.39 34V6h5.36l16.52 20.16h-2.6V6h6.4v28h-5.32L64.19 13.84h2.6V34h-6.4ZM22.52 45H29v28h-6.48V45ZM9.8 73H3.32V45H9.8v28ZM23 61.52H9.32v-5.48H23v5.48ZM31.945 73l12.48-28h6.4l12.52 28h-6.8l-10.24-24.72h2.56L38.585 73h-6.64Zm6.24-6 1.72-4.92h14.4l1.76 4.92h-17.88Zm39.919 6.48c-3.974 0-7.08-1.107-9.32-3.32s-3.36-5.373-3.36-9.48V45h6.48v15.44c0 2.667.546 4.587 1.64 5.76 1.093 1.173 2.626 1.76 4.6 1.76 1.973 0 3.506-.587 4.6-1.76 1.093-1.173 1.64-3.093 1.64-5.76V45h6.4v15.68c0 4.107-1.12 7.267-3.36 9.48-2.24 2.213-5.347 3.32-9.32 3.32Z"/><path fill="#FAEB8C" d="M9.32 18.6v-1h-1v1h1Zm13.44 0h1v-1h-1v1Zm0 5.2v1h1v-1h-1Zm-13.44 0h-1v1h1v-1ZM9.8 34v1h1v-1h-1Zm-6.48 0h-1v1h1v-1Zm0-28V5h-1v1h1Zm21.16 0h1V5h-1v1Zm0 5.2v1h1v-1h-1Zm-14.68 0v-1h-1v1h1Zm-.48 7.4v1h13.44v-2H9.32v1Zm13.44 0h-1v5.2h2v-5.2h-1Zm0 5.2v-1H9.32v2h13.44v-1Zm-13.44 0h1v-5.2h-2v5.2h1ZM9.8 34v-1H3.32v2H9.8v-1Zm-6.48 0h1V6h-2v28h1Zm0-28v1h21.16V5H3.32v1Zm21.16 0h-1v5.2h2V6h-1Zm0 5.2v-1H9.8v2h14.68v-1Zm-14.68 0h-1V34h2V11.2h-1Zm22.187 19.96.703-.711-.703.711ZM28.627 6V5h-1v1h1Zm6.48 0h1V5h-1v1Zm1.64 21.2-.732.682.732-.682Zm9.2 0 .731.682-.731-.682ZM47.587 6V5h-1v1h1Zm6.4 0h1V5h-1v1Zm-3.36 25.16.703.711-.703-.711Zm-9.32 3.32v-1c-3.783 0-6.61-1.048-8.617-3.031l-.703.711-.703.711c2.473 2.444 5.859 3.609 10.023 3.609v-1Zm-9.32-3.32.703-.711c-1.997-1.974-3.063-4.845-3.063-8.769h-2c0 4.29 1.174 7.738 3.657 10.191l.703-.711Zm-3.36-9.48h1V6h-2v15.68h1Zm0-15.68v1h6.48V5h-6.48v1Zm6.48 0h-1v15.44h2V6h-1Zm0 15.44h-1c0 2.763.559 4.994 1.908 6.442l.732-.682.731-.682c-.837-.898-1.371-2.507-1.371-5.078h-1Zm1.64 5.76-.732.682c1.325 1.421 3.15 2.078 5.332 2.078v-2c-1.765 0-3.007-.517-3.869-1.442l-.731.682Zm4.6 1.76v1c2.182 0 4.007-.657 5.331-2.078l-.731-.682-.732-.682c-.862.925-2.104 1.442-3.868 1.442v1Zm4.6-1.76.731.682c1.35-1.448 1.909-3.68 1.909-6.442h-2c0 2.57-.534 4.18-1.372 5.078l.732.682Zm1.64-5.76h1V6h-2v15.44h1Zm0-15.44v1h6.4V5h-6.4v1Zm6.4 0h-1v15.68h2V6h-1Zm0 15.68h-1c0 3.924-1.066 6.795-3.063 8.769l.703.711.703.711c2.483-2.453 3.657-5.902 3.657-10.191h-1Zm-3.36 9.48-.703-.711c-2.007 1.983-4.834 3.031-8.617 3.031v2c4.164 0 7.55-1.165 10.023-3.609l-.703-.711ZM60.39 34h-1v1h1v-1Zm0-28V5h-1v1h1Zm5.36 0 .774-.634-.3-.366h-.474v1Zm16.52 20.16v1h2.113l-1.34-1.634-.773.634Zm-2.6 0h-1v1h1v-1Zm0-20.16V5h-1v1h1Zm6.4 0h1V5h-1v1Zm0 28v1h1v-1h-1Zm-5.32 0-.772.635.3.365h.472v-1ZM64.19 13.84v-1h-2.115l1.343 1.635.772-.635Zm2.6 0h1v-1h-1v1Zm0 20.16v1h1v-1h-1Zm-6.4 0h1V6h-2v28h1Zm0-28v1h5.36V5h-5.36v1Zm5.36 0-.773.634 16.52 20.16.773-.634.774-.634-16.52-20.16L65.75 6Zm16.52 20.16v-1h-2.6v2h2.6v-1Zm-2.6 0h1V6h-2v20.16h1Zm0-20.16v1h6.4V5h-6.4v1Zm6.4 0h-1v28h2V6h-1Zm0 28v-1h-5.32v2h5.32v-1Zm-5.32 0 .773-.635-16.56-20.16-.773.635-.772.635 16.56 20.16.772-.635ZM64.19 13.84v1h2.6v-2h-2.6v1Zm2.6 0h-1V34h2V13.84h-1Zm0 20.16v-1h-6.4v2h6.4v-1ZM22.52 45v-1h-1v1h1ZM29 45h1v-1h-1v1Zm0 28v1h1v-1h-1Zm-6.48 0h-1v1h1v-1ZM9.8 73v1h1v-1h-1Zm-6.48 0h-1v1h1v-1Zm0-28v-1h-1v1h1Zm6.48 0h1v-1h-1v1ZM23 61.52v1h1v-1h-1Zm-13.68 0h-1v1h1v-1Zm0-5.48v-1h-1v1h1Zm13.68 0h1v-1h-1v1ZM22.52 45v1H29v-2h-6.48v1ZM29 45h-1v28h2V45h-1Zm0 28v-1h-6.48v2H29v-1Zm-6.48 0h1V45h-2v28h1ZM9.8 73v-1H3.32v2H9.8v-1Zm-6.48 0h1V45h-2v28h1Zm0-28v1H9.8v-2H3.32v1Zm6.48 0h-1v28h2V45h-1ZM23 61.52v-1H9.32v2H23v-1Zm-13.68 0h1v-5.48h-2v5.48h1Zm0-5.48v1H23v-2H9.32v1Zm13.68 0h-1v5.48h2v-5.48h-1ZM31.945 73l-.914-.407L30.404 74h1.54v-1Zm12.48-28v-1h-.65l-.264.593.914.407Zm6.4 0 .913-.408-.265-.592h-.648v1Zm12.52 28v1h1.542l-.63-1.408-.912.408Zm-6.8 0-.924.383.255.617h.669v-1Zm-10.24-24.72v-1h-1.497l.573 1.383.924-.383Zm2.56 0 .923.384.576-1.384h-1.5v1ZM38.585 73v1h.667l.256-.616-.923-.384Zm-.4-6-.944-.33-.465 1.33h1.409v-1Zm1.72-4.92v-1h-.71l-.234.67.944.33Zm14.4 0 .941-.337-.237-.663h-.704v1Zm1.76 4.92v1h1.42l-.479-1.337-.941.337Zm-24.12 6 .913.407 12.48-28-.913-.407-.914-.407-12.48 28 .914.407Zm12.48-28v1h6.4v-2h-6.4v1Zm6.4 0-.913.408 12.52 28 .913-.408.913-.408-12.52-28-.913.408Zm12.52 28v-1h-6.8v2h6.8v-1Zm-6.8 0 .924-.383-10.24-24.72-.924.383-.924.383 10.24 24.72.924-.383Zm-10.24-24.72v1h2.56v-2h-2.56v1Zm2.56 0-.924-.384-10.28 24.72.924.384.923.384 10.28-24.72-.923-.384ZM38.585 73v-1h-6.64v2h6.64v-1Zm-.4-6 .944.33 1.72-4.92-.944-.33-.944-.33-1.72 4.92.944.33Zm1.72-4.92v1h14.4v-2h-14.4v1Zm14.4 0-.942.337 1.76 4.92.942-.337.941-.337-1.76-4.92-.941.337Zm1.76 4.92v-1h-17.88v2h17.88v-1Zm12.719 3.16.703-.711-.703.711ZM65.424 45v-1h-1v1h1Zm6.48 0h1v-1h-1v1Zm1.64 21.2-.732.682.732-.682Zm9.2 0 .731.682-.731-.682Zm1.64-21.2v-1h-1v1h1Zm6.4 0h1v-1h-1v1Zm-3.36 25.16.703.711-.703-.711Zm-9.32 3.32v-1c-3.783 0-6.61-1.048-8.617-3.031l-.703.711-.703.711c2.473 2.444 5.859 3.609 10.023 3.609v-1Zm-9.32-3.32.703-.711c-1.997-1.974-3.063-4.845-3.063-8.769h-2c0 4.29 1.174 7.738 3.657 10.191l.703-.711Zm-3.36-9.48h1V45h-2v15.68h1Zm0-15.68v1h6.48v-2h-6.48v1Zm6.48 0h-1v15.44h2V45h-1Zm0 15.44h-1c0 2.763.559 4.994 1.908 6.442l.732-.682.731-.682c-.837-.898-1.371-2.507-1.371-5.078h-1Zm1.64 5.76-.732.682c1.325 1.421 3.15 2.078 5.332 2.078v-2c-1.765 0-3.007-.517-3.869-1.442l-.731.682Zm4.6 1.76v1c2.182 0 4.007-.657 5.331-2.078l-.731-.682-.732-.682c-.862.925-2.104 1.442-3.868 1.442v1Zm4.6-1.76.731.682c1.35-1.448 1.909-3.68 1.909-6.442h-2c0 2.57-.534 4.18-1.372 5.078l.732.682Zm1.64-5.76h1V45h-2v15.44h1Zm0-15.44v1h6.4v-2h-6.4v1Zm6.4 0h-1v15.68h2V45h-1Zm0 15.68h-1c0 3.924-1.066 6.795-3.063 8.769l.703.711.703.711c2.483-2.453 3.657-5.902 3.657-10.191h-1Zm-3.36 9.48-.703-.711c-2.007 1.983-4.835 3.031-8.617 3.031v2c4.164 0 7.55-1.165 10.023-3.609l-.703-.711Z" mask="url(#a)"/><mask id="b" width="27" height="32" x="92" y="42" fill="#000" maskUnits="userSpaceOnUse"><path fill="#fff" d="M92 42h27v32H92z"/><path d="M105.52 72.48c-2.24 0-4.387-.293-6.44-.88-2.053-.613-3.707-1.4-4.96-2.36l2.2-4.88c1.2.853 2.613 1.56 4.24 2.12 1.653.533 3.32.8 5 .8 1.28 0 2.307-.12 3.08-.36.8-.267 1.387-.627 1.76-1.08.373-.453.56-.973.56-1.56 0-.747-.293-1.333-.88-1.76-.587-.453-1.36-.813-2.32-1.08-.96-.293-2.027-.56-3.2-.8a45.334 45.334 0 0 1-3.48-.96 14.846 14.846 0 0 1-3.16-1.44 7.264 7.264 0 0 1-2.36-2.32c-.587-.96-.88-2.187-.88-3.68 0-1.6.427-3.053 1.28-4.36.88-1.333 2.187-2.387 3.92-3.16 1.76-.8 3.96-1.2 6.6-1.2 1.76 0 3.493.213 5.2.64 1.707.4 3.213 1.013 4.52 1.84l-2 4.92c-1.307-.747-2.613-1.293-3.92-1.64a13.944 13.944 0 0 0-3.84-.56c-1.253 0-2.28.147-3.08.44-.8.293-1.373.68-1.72 1.16-.347.453-.52.987-.52 1.6 0 .72.293 1.307.88 1.76.587.427 1.36.773 2.32 1.04.96.267 2.013.533 3.16.8 1.173.267 2.333.573 3.48.92 1.173.347 2.24.813 3.2 1.4a6.899 6.899 0 0 1 2.32 2.32c.613.96.92 2.173.92 3.64a7.57 7.57 0 0 1-1.32 4.32c-.88 1.307-2.2 2.36-3.96 3.16-1.733.8-3.933 1.2-6.6 1.2Z"/></mask><path fill="#FAEB8C" d="m99.08 71.6-.286.958.011.003.275-.961Zm-4.96-2.36-.912-.411-.326.723.63.482.608-.794Zm2.2-4.88.58-.815-.992-.705-.5 1.109.912.411Zm4.24 2.12-.326.945.01.004.009.003.307-.952Zm8.08.44.296.955.01-.003.01-.003-.316-.949Zm1.76-1.08-.772-.636.772.636Zm-.32-3.32-.611.791.011.01.012.008.588-.809Zm-2.32-1.08-.292.956.012.004.012.004.268-.964Zm-3.2-.8-.227.974.014.003.013.003.2-.98Zm-3.48-.96-.31.95.007.003.303-.953Zm-3.16-1.44-.522.853.522-.853Zm-2.36-2.32-.853.521.005.009.005.008.843-.538Zm.4-8.04-.835-.55-.002.003.837.547Zm3.92-3.16.407.913.007-.003-.414-.91Zm11.8-.56-.243.97.008.002.007.002.228-.974ZM116.2 46l.926.377.315-.775-.706-.447-.535.845Zm-2 4.92-.496.868.992.567.43-1.058-.926-.377Zm-3.92-1.64-.275.962.009.002.01.003.256-.967Zm-6.92-.12-.344-.939.344.939Zm-1.72 1.16.794.607.009-.01.008-.011-.811-.586Zm.36 3.36-.611.791.011.01.012.008.588-.809Zm2.32 1.04-.268.964.268-.964Zm3.16.8-.227.974.005.001.222-.975Zm3.48.92-.289.957.006.002.283-.959Zm3.2 1.4.521-.853-.521.853Zm2.32 2.32-.853.521.005.009.005.008.843-.538Zm-.4 7.96.829.559-.829-.559Zm-3.96 3.16-.414-.91-.005.002.419.908Zm-6.6 1.2v-1c-2.152 0-4.206-.282-6.165-.842l-.275.962-.275.962c2.147.613 4.387.918 6.715.918v-1Zm-6.44-.88.286-.958c-1.976-.59-3.509-1.33-4.638-2.196l-.608.794-.608.794c1.377 1.055 3.151 1.888 5.282 2.524l.286-.958Zm-4.96-2.36.912.411 2.2-4.88-.912-.411-.912-.411-2.2 4.88.912.411Zm2.2-4.88-.58.815c1.29.917 2.792 1.665 4.494 2.25l.326-.945.326-.946c-1.551-.534-2.876-1.2-3.986-1.989l-.58.815Zm4.24 2.12-.307.952c1.749.564 3.519.848 5.307.848v-2c-1.572 0-3.135-.25-4.693-.752l-.307.952Zm5 .8v1c1.329 0 2.468-.123 3.376-.405l-.296-.955-.296-.955c-.639.198-1.553.315-2.784.315v1Zm3.08-.36.316.949c.905-.302 1.682-.745 2.216-1.393l-.772-.636-.772-.636c-.213.258-.609.536-1.304.767l.316.949Zm1.76-1.08.772.636a3.381 3.381 0 0 0 .788-2.196h-2c0 .355-.106.65-.332.924l.772.636Zm.56-1.56h1c0-1.056-.438-1.947-1.292-2.569l-.588.809-.588.809c.319.232.468.513.468.951h1Zm-.88-1.76.611-.791c-.717-.555-1.619-.962-2.663-1.252l-.268.963-.268.964c.876.243 1.521.555 1.977.907l.611-.791Zm-2.32-1.08.292-.956a35.956 35.956 0 0 0-3.292-.824l-.2.98-.2.98a34 34 0 0 1 3.108.776l.292-.956Zm-3.2-.8.227-.974a44.367 44.367 0 0 1-3.404-.939l-.303.953-.303.953c1.197.38 2.383.708 3.556.981l.227-.974Zm-3.48-.96.31-.95a13.85 13.85 0 0 1-2.949-1.343l-.521.853-.521.853a15.86 15.86 0 0 0 3.371 1.538l.31-.951Zm-3.16-1.44.522-.853a6.263 6.263 0 0 1-2.04-2.005l-.842.538-.843.538a8.265 8.265 0 0 0 2.681 2.635l.522-.853Zm-2.36-2.32.853-.522c-.464-.759-.733-1.79-.733-3.158h-2c0 1.619.318 3.041 1.027 4.201l.853-.521Zm-.88-3.68h1c0-1.411.373-2.673 1.117-3.813l-.837-.547-.837-.547c-.963 1.474-1.443 3.118-1.443 4.907h1Zm1.28-4.36.835.55c.756-1.146 1.9-2.086 3.492-2.797l-.407-.913-.407-.913c-1.875.836-3.344 2.002-4.348 3.522l.835.551Zm3.92-3.16.414.91c1.592-.723 3.64-1.11 6.186-1.11v-2c-2.734 0-5.086.413-7.014 1.29l.414.91Zm6.6-1.2v1c1.678 0 3.33.203 4.957.61l.243-.97.243-.97a22.362 22.362 0 0 0-5.443-.67v1Zm5.2.64-.228.974c1.612.377 3.013.951 4.213 1.711L116.2 46l.535-.845c-1.413-.894-3.026-1.547-4.827-1.969l-.228.974ZM116.2 46l-.926-.377-2 4.92.926.377.926.377 2-4.92L116.2 46Zm-2 4.92.496-.868c-1.373-.785-2.76-1.367-4.16-1.739l-.256.967-.256.967c1.214.322 2.44.833 3.68 1.541l.496-.868Zm-3.92-1.64.275-.962a14.942 14.942 0 0 0-4.115-.598v2c1.153 0 2.34.172 3.565.522l.275-.962Zm-3.84-.56v-1c-1.321 0-2.475.153-3.424.501l.344.939.344.939c.651-.239 1.55-.379 2.736-.379v-1Zm-3.08.44-.344-.939c-.909.333-1.682.815-2.187 1.514l.811.585.811.586c.189-.262.562-.554 1.253-.807l-.344-.939Zm-1.72 1.16-.794-.608c-.491.642-.726 1.393-.726 2.208h2c0-.411.111-.727.314-.993l-.794-.607Zm-.52 1.6h-1c0 1.04.445 1.915 1.269 2.551l.611-.791.611-.791c-.35-.27-.491-.57-.491-.969h-1Zm.88 1.76-.588.809c.712.518 1.605.907 2.64 1.195l.268-.964.268-.963c-.885-.246-1.539-.55-2-.886l-.588.809Zm2.32 1.04-.268.964c.976.27 2.043.54 3.201.81l.227-.974.227-.974a75.756 75.756 0 0 1-3.119-.79l-.268.964Zm3.16.8-.222.975c1.151.262 2.288.562 3.413.902l.289-.957.289-.957a52.258 52.258 0 0 0-3.547-.938l-.222.975Zm3.48.92-.283.959a12.38 12.38 0 0 1 2.962 1.294l.521-.853.521-.853a14.35 14.35 0 0 0-3.438-1.506l-.283.959Zm3.2 1.4-.521.853a5.9 5.9 0 0 1 1.988 1.988l.853-.521.853-.521a7.887 7.887 0 0 0-2.652-2.652l-.521.853Zm2.32 2.32-.843.538c.485.76.763 1.772.763 3.102h2c0-1.603-.336-3.017-1.077-4.178l-.843.538Zm.92 3.64h-1a6.57 6.57 0 0 1-1.149 3.761l.829.559.829.559A8.57 8.57 0 0 0 118.4 63.8h-1Zm-1.32 4.32-.829-.559c-.756 1.122-1.915 2.068-3.545 2.809l.414.91.414.91c1.89-.859 3.371-2.02 4.375-3.511l-.829-.559Zm-3.96 3.16-.419-.908c-1.561.72-3.605 1.108-6.181 1.108v2c2.758 0 5.113-.412 7.019-1.292l-.419-.908Z" mask="url(#b)"/></svg>